<?xml version="1.0" encoding="UTF-8"?>
<svg width="200px" height="200px" viewBox="0 0 200 200" version="1.1" xmlns="http://www.w3.org/2000/svg" xmlns:xlink="http://www.w3.org/1999/xlink">
    <title>font</title>
    <g id="font" stroke="none" stroke-width="1" fill="none" fill-rule="evenodd">
        <g id="icon" transform="translate(14.000000, 0.000000)" fill-rule="nonzero">
            <path d="M0,7.5757632 L0,192.424237 C0,196.363632 3.93870618,200 7.57443797,200 L165.425562,200 C169.364268,200 173,196.060605 173,192.424237 L173,43.9394422 L129.068225,0.303105528 L7.57422316,0 C3.63573179,0 0,3.9393953 0,7.5757632 Z" id="路径" fill="#5E89C1"></path>
            <path d="M129,0 L129,34.5 C129,38.3999945 132.964553,42 136.624125,42 L172,42 L129,0 L129,0 Z" id="路径" fill="#B9D8FF"></path>
        </g>
        <path d="M105.16,148.28 L105.16,144.92 L98.44,144.08 C97.56,144 96.84,143.92 96.28,143.84 C95.72,143.76 95.26,143.58 94.9,143.3 C94.54,143.02 94.28,142.62 94.12,142.1 C93.96,141.58 93.88,140.76 93.88,139.64 L93.88,139.64 L93.88,111.08 L113.8,111.08 C116.2,111.08 117.8,111.22 118.6,111.5 C119.4,111.78 120.04,112.76 120.52,114.44 L120.52,114.44 L123.04,122.24 L125.32,122.24 C125.08,117.6 124.96,112.76 124.96,107.72 C124.96,105.16 124.98,102.9 125.02,100.94 C125.06,98.98 125.12,97.24 125.2,95.72 L125.2,95.72 L122.68,95.72 L120.76,103.52 C120.44,105.04 120.02,106.02 119.5,106.46 C118.98,106.9 118,107.12 116.56,107.12 L116.56,107.12 L93.88,107.12 L93.88,82.64 C93.88,80.8 94.12,79.5 94.6,78.74 C95.08,77.98 96,77.6 97.36,77.6 L97.36,77.6 L120.76,77.6 C122.04,77.6 123.12,77.76 124,78.08 C124.88,78.4 125.66,79.04 126.34,80 C127.02,80.96 127.7,82.34 128.38,84.14 C129.06,85.94 129.84,88.32 130.72,91.28 L130.72,91.28 L133,91.28 C132.92,90.24 132.88,89 132.88,87.56 L132.88,87.56 L132.88,82.64 C132.88,80.8 132.9,78.92 132.94,77 C132.98,75.08 133.04,73.6 133.12,72.56 C131.36,72.64 129.2,72.7 126.64,72.74 C124.08,72.78 121,72.8 117.4,72.8 L112.849865,72.7991888 C101.602358,72.7950784 92.4790698,72.7753488 85.48,72.74 C77.56,72.7 72.68,72.64 70.84,72.56 L70.84,72.56 L70.84,75.44 L77.68,76.28 C78.96,76.44 79.78,76.94 80.14,77.78 C80.5,78.62 80.68,79.92 80.68,81.68 L80.68,81.68 L80.68,139.76 C80.68,141.28 80.46,142.34 80.02,142.94 C79.58,143.54 78.68,143.92 77.32,144.08 L77.32,144.08 L69.88,144.92 L69.88,148.28 C71.72,148.12 74.12,148 77.08,147.92 C80.04,147.84 83.16,147.8 86.44,147.8 C89.72,147.8 92.96,147.84 96.16,147.92 C99.36,148 102.36,148.12 105.16,148.28 L105.16,148.28 Z" id="F" fill="#FFFFFF" fill-rule="nonzero"></path>
    </g>
</svg>